<?xml version="1.0" encoding="UTF-8"?>
<svg version="1.1" xmlns="http://www.w3.org/2000/svg" width="500" height="500">
<path d="M0 0 C165 0 330 0 500 0 C500 165 500 330 500 500 C335 500 170 500 0 500 C0 335 0 170 0 0 Z " fill="#000000" transform="translate(0,0)"/>
<path d="M0 0 C0.7569516 -0.00686325 1.5139032 -0.0137265 2.29379272 -0.02079773 C4.78288828 -0.03901843 7.27135044 -0.03523412 9.76049805 -0.02954102 C11.50156355 -0.03410609 13.24262725 -0.03941264 14.98368835 -0.04542542 C18.62933682 -0.05434799 22.27476616 -0.05194433 25.92041016 -0.04199219 C30.57404191 -0.03052154 35.2269127 -0.05068882 39.88044453 -0.07990932 C43.47603603 -0.09833045 47.07144731 -0.09796683 50.6670742 -0.0922718 C52.38174695 -0.09211922 54.09643241 -0.0981116 55.81105995 -0.11056328 C75.40276482 -0.2327716 75.40276482 -0.2327716 81.98686218 6.11830139 C83.79758258 8.16512413 85.46165124 10.28502751 87.12768555 12.45092773 C102.53675701 31.97498754 102.53675701 31.97498754 124.52738953 41.47195435 C136.79197508 42.39055349 149.07799282 41.2414585 161.2097168 39.40405273 C160.77123413 38.97445251 160.33275146 38.54485229 159.88098145 38.10223389 C155.32734463 33.63695562 150.78774223 29.15776548 146.25610352 24.67016602 C144.56208897 22.99629124 142.86450512 21.32602082 141.16333008 19.65942383 C138.72143754 17.26594198 136.2925924 14.85987427 133.8659668 12.45092773 C133.10038452 11.7059906 132.33480225 10.96105347 131.54602051 10.19354248 C130.84529419 9.49311829 130.14456787 8.79269409 129.42260742 8.07104492 C128.80083618 7.45815613 128.17906494 6.84526733 127.53845215 6.21380615 C126.2097168 4.40405273 126.2097168 4.40405273 126.2097168 0.40405273 C163.1697168 0.40405273 200.1297168 0.40405273 238.2097168 0.40405273 C237.0847168 6.02905273 237.0847168 6.02905273 233.97509766 9.09277344 C233.29446762 9.77310135 232.61383759 10.45342926 231.9125824 11.15437317 C231.17403519 11.87227524 230.43548798 12.59017731 229.67456055 13.32983398 C228.92130997 14.07742477 228.16805939 14.82501556 227.39198303 15.59526062 C224.98629067 17.9785801 222.56705876 20.34760932 220.1472168 22.71655273 C218.51284144 24.33086448 216.87936652 25.9460884 215.24682617 27.56225586 C211.24484081 31.52016164 207.23165194 35.46642668 203.2097168 39.40405273 C229.89905371 43.83554411 229.89905371 43.83554411 254.69458008 36.03344727 C263.95837926 28.64915961 271.89407128 19.53128458 279.14186096 10.19300842 C279.695186 9.49276047 280.24851105 8.79251251 280.81860352 8.07104492 C281.28386444 7.45815613 281.74912537 6.84526733 282.22848511 6.21380615 C287.52182103 1.37861559 293.24053706 -0.19490166 300.3347168 -0.12939453 C301.48762207 -0.14231789 301.48762207 -0.14231789 302.66381836 -0.15550232 C305.17947015 -0.17802183 307.69399529 -0.17145049 310.2097168 -0.16235352 C311.97274096 -0.16759493 313.73576231 -0.1738733 315.4987793 -0.18113708 C319.18380991 -0.19151508 322.86845372 -0.18701683 326.5534668 -0.17236328 C331.26111278 -0.15516947 335.96753885 -0.17869123 340.67504883 -0.21385288 C344.31266266 -0.23587712 347.94998674 -0.23437347 351.58764648 -0.22608757 C353.32268615 -0.22527099 355.05774771 -0.23207803 356.79272461 -0.2468586 C367.40284459 -0.32341035 374.29832913 -0.03360004 382.4519043 7.46655273 C382.99073242 8.10592773 383.52956055 8.74530273 384.0847168 9.40405273 C384.63901367 10.04342773 385.19331055 10.68280273 385.7644043 11.34155273 C388.81246784 15.69122178 389.50329586 19.45022494 389.5222168 24.71655273 C389.53897461 25.78518555 389.55573242 26.85381836 389.57299805 27.95483398 C389.2097168 31.40405273 389.2097168 31.40405273 386.2097168 39.40405273 C401.3897168 39.73405273 416.5697168 40.06405273 432.2097168 40.40405273 C432.2097168 95.18405273 432.2097168 149.96405273 432.2097168 206.40405273 C267.2097168 206.40405273 102.2097168 206.40405273 -67.7902832 206.40405273 C-67.7902832 151.62405273 -67.7902832 96.84405273 -67.7902832 40.40405273 C-45.0202832 39.90905273 -45.0202832 39.90905273 -21.7902832 39.40405273 C-22.7802832 36.76405273 -23.7702832 34.12405273 -24.7902832 31.40405273 C-25.78265466 23.75117018 -25.51749206 16.7116188 -20.7902832 10.40405273 C-14.93697285 3.38858391 -9.33531921 -0.05977878 0 0 Z " fill="#FEFDFC" transform="translate(67.790283203125,293.595947265625)"/>
<path d="M0 0 C19.93476977 18.63036093 32.91740117 46.05078351 34.4375 73.3125 C34.60517337 78.73675859 34.62332769 84.16167816 34.62280273 89.58813477 C34.62498619 92.10905939 34.64318889 94.62954318 34.66210938 97.15039062 C34.69422196 106.40769587 34.17213018 115.18749175 32.4375 124.3125 C32.24929688 125.59382812 32.06109375 126.87515625 31.8671875 128.1953125 C27.83751234 151.74904761 15.24288827 173.22209784 -4.3046875 187.16015625 C-25.03680873 200.85727711 -48.10118142 206.47395638 -72.5625 209.3125 C-73.40151855 209.415625 -74.24053711 209.51875 -75.10498047 209.625 C-81.72216836 210.37656223 -88.28232065 210.46505965 -94.9375 210.4375 C-96.1548584 210.43411621 -97.3722168 210.43073242 -98.62646484 210.42724609 C-109.52067068 210.36981679 -120.41377492 210.20666653 -131.30596924 209.99310303 C-133.19650688 209.95662255 -135.08709315 209.92256418 -136.97772217 209.89117432 C-191.31877009 208.95983495 -191.31877009 208.95983495 -207.04296875 194.0390625 C-218.36625328 181.17301684 -219.73142718 163.07951978 -219.67602539 146.6640625 C-219.67624443 144.95055855 -219.67624443 144.95055855 -219.6764679 143.20243835 C-219.67577431 139.44743921 -219.6680079 135.69249042 -219.66015625 131.9375 C-219.6582901 129.32576525 -219.65686713 126.71403015 -219.65586853 124.10229492 C-219.65276961 117.94371604 -219.64457575 111.78515507 -219.63451904 105.62658405 C-219.62331305 98.61081505 -219.61783618 91.59504515 -219.61282361 84.57926941 C-219.60239183 70.1570035 -219.58461725 55.7347526 -219.5625 41.3125 C-223.5225 41.3125 -227.4825 41.3125 -231.5625 41.3125 C-231.75241266 7.80021915 -231.75241266 7.80021915 -231.125 -8.3125 C-231.08576416 -9.33972168 -231.04652832 -10.36694336 -231.00610352 -11.42529297 C-230.75433679 -17.21737744 -230.2336171 -22.93020603 -229.5625 -28.6875 C-228.31041748 -28.71255615 -227.05833496 -28.7376123 -225.76831055 -28.76342773 C-186.55752291 -29.51018239 -186.55752291 -29.51018239 -147.37890625 -31.1953125 C-94.56626264 -34.1420804 -42.57439926 -36.85811628 0 0 Z " fill="#CC0000" transform="translate(346.5625,68.6875)"/>
<path d="M0 0 C15.84 0 31.68 0 48 0 C52.455 4.95 52.455 4.95 57 10 C58.86450107 11.94834386 60.74434084 13.88225712 62.64659119 15.79376221 C63.14541874 16.29626645 63.64424629 16.79877069 64.15818983 17.31650233 C65.79059452 18.95971047 67.42636688 20.59951903 69.06225586 22.23925781 C70.24949175 23.43277545 71.43654392 24.62647587 72.62342834 25.82034302 C76.48371613 29.7014477 80.3491345 33.57742153 84.21484375 37.453125 C85.55349875 38.79583415 86.89212223 40.13857474 88.2307148 41.48134613 C94.51577291 47.7853965 100.80319904 54.08707317 107.09357446 60.38581777 C114.32834892 67.63038126 121.5547477 74.88316825 128.77422804 82.14297223 C134.3768051 87.77575614 139.98708131 93.4007973 145.60312754 99.02015185 C148.94831997 102.36768681 152.29017228 105.71839816 155.6238842 109.07736969 C158.75801314 112.23486863 161.90163773 115.38260126 165.05258751 118.52331161 C166.20165856 119.6718896 167.34736387 120.82384713 168.48926926 121.97954941 C180.34849761 134.31810976 180.34849761 134.31810976 196.125 139.25 C213.06245127 138.89428616 224.02906694 123.10592868 235.125 111.9375 C236.47632686 110.5811454 237.82788772 109.2250239 239.1796875 107.86914062 C242.45582527 104.58210445 245.72879311 101.29194304 249 98 C252.05883729 99.36299003 254.12902064 100.89470024 256.46411133 103.28466797 C257.12192093 103.95231171 257.77973053 104.61995544 258.45747375 105.30783081 C259.50912971 106.38908737 259.50912971 106.38908737 260.58203125 107.4921875 C262.08646492 109.01704906 263.59102624 110.54178469 265.09570312 112.06640625 C267.45484906 114.46897205 269.81147061 116.873947 272.1652832 119.28173828 C274.44348946 121.60842717 276.73098969 123.92567019 279.01953125 126.2421875 C279.71456253 126.95897675 280.40959381 127.67576599 281.12568665 128.41427612 C287.39019802 134.74152007 293.40150358 138.9370827 302.5 139.4375 C315.7009955 139.07240387 324.62722893 129.22160029 333.26416016 120.43286133 C334.54217613 119.15478985 335.8215115 117.87803657 337.10205078 116.60249329 C340.54889091 113.16160571 343.97695916 109.70256755 347.40164614 106.23964906 C350.99626588 102.61105535 354.6076683 98.99923848 358.21713257 95.38542175 C364.26714523 89.32348387 370.30614413 83.25076144 376.33740234 77.17016602 C384.84752186 68.5904779 393.37776775 60.03101803 401.91192174 51.47524607 C408.54159611 44.82728686 415.16569397 38.1737721 421.7890625 31.51953125 C422.85457297 30.44926362 422.85457297 30.44926362 423.94160891 29.35737443 C428.01807996 25.26210245 432.09174865 21.16408015 436.16111755 17.06175041 C437.39465949 15.8188825 438.6290321 14.5768384 439.86428452 13.33567047 C441.54685306 11.64465734 443.22630972 9.95061509 444.90493774 8.25569153 C445.3967499 7.76269949 445.88856206 7.26970746 446.39527762 6.76177627 C448.54024403 4.58964721 450.29764367 2.5535345 452 0 C467.84 0 483.68 0 500 0 C500 54.78 500 109.56 500 166 C335 166 170 166 0 166 C0 111.22 0 56.44 0 0 Z " fill="#FFD21F" transform="translate(0,334)"/>
<path d="M0 0 C0.33 0 0.66 0 1 0 C1 5.94 1 11.88 1 18 C39.94 18 78.88 18 119 18 C119 73.11 119 128.22 119 185 C103.49 185 87.98 185 72 185 C73.485 180.545 73.485 180.545 75 176 C75.83916752 169.33958028 75.90771978 162.68372763 72.40625 156.78125 C68.85877063 152.28777614 64.37164501 148.11683893 59 146 C56.40730451 145.79985737 53.92164379 145.70621406 51.32910156 145.70947266 C50.56108215 145.70275543 49.79306274 145.69603821 49.00177002 145.68911743 C46.46465568 145.67013274 43.92780595 145.66621263 41.390625 145.6640625 C39.62188611 145.65763351 37.85314829 145.65090507 36.08441162 145.64389038 C32.37558529 145.63191545 28.66685211 145.62820964 24.95800781 145.62939453 C20.21906271 145.62959741 15.48071937 145.60232817 10.74191666 145.56785011 C7.08719168 145.54554377 3.43261047 145.54155818 -0.2221756 145.54261398 C-1.96838702 145.54026238 -3.71460268 145.53146378 -5.46074677 145.51594925 C-7.91142575 145.49621868 -10.36082109 145.50215471 -12.81152344 145.51416016 C-13.52453613 145.50292114 -14.23754883 145.49168213 -14.97216797 145.48010254 C-21.21515986 145.5573081 -26.34625833 147.56768203 -30.97450256 151.80975342 C-31.43674728 152.42264221 -31.898992 153.03553101 -32.37524414 153.66699219 C-32.92538177 154.36724014 -33.47551941 155.0674881 -34.04232788 155.78895569 C-34.61746124 156.53406906 -35.1925946 157.27918243 -35.78515625 158.046875 C-58.09121709 185.03923827 -58.09121709 185.03923827 -73.4803009 187.06790161 C-86.02226254 187.98895146 -98.58755378 186.8340141 -111 185 C-106.93723438 180.10569145 -102.65645567 175.5537797 -98.10546875 171.11328125 C-96.80766143 169.83296735 -95.5101436 168.55235995 -94.21289062 167.27148438 C-92.19044959 165.28013883 -90.16575699 163.29124862 -88.13598633 161.30737305 C-86.16075497 159.37437487 -84.19501453 157.43213019 -82.23046875 155.48828125 C-81.31493477 154.60067863 -81.31493477 154.60067863 -80.38090515 153.69514465 C-79.81974503 153.13743881 -79.2585849 152.57973297 -78.68041992 152.00512695 C-78.18555588 151.51994095 -77.69069183 151.03475494 -77.18083191 150.53486633 C-75.65925936 148.76846925 -75.65925936 148.76846925 -75 145 C-111.96 145 -148.92 145 -187 145 C-185.28778212 149.2805447 -184.68292463 150.69070921 -181.65185547 153.67285156 C-180.97130096 154.34995178 -180.29074646 155.027052 -179.58956909 155.72467041 C-178.4894902 156.79681793 -178.4894902 156.79681793 -177.3671875 157.890625 C-176.61535187 158.63584412 -175.86351624 159.38106323 -175.08889771 160.14886475 C-172.69126507 162.52312027 -170.28368452 164.8869618 -167.875 167.25 C-165.46095538 169.62904457 -163.04904224 172.01019655 -160.63967896 174.39398193 C-159.14041855 175.87618905 -157.63809746 177.35530749 -156.13253784 178.83111572 C-155.45828766 179.4956073 -154.78403748 180.16009888 -154.08935547 180.84472656 C-153.49138153 181.43143127 -152.89340759 182.01813599 -152.27731323 182.62261963 C-151 184 -151 184 -151 185 C-190.21215459 190.79383332 -190.21215459 190.79383332 -203.51611328 181.62939453 C-212.75793011 174.26993072 -220.68151851 165.15281899 -227.84437561 155.78895569 C-231.88030833 150.65107467 -235.52507746 147.45876147 -242 146 C-247.96482546 145.43261908 -253.89145376 145.41158818 -259.87890625 145.43359375 C-261.61808096 145.42835083 -263.35725283 145.42207192 -265.09642029 145.41481018 C-268.72839817 145.40444135 -272.35998336 145.40891802 -275.99194336 145.42358398 C-280.63118553 145.4407905 -285.26919125 145.41723566 -289.90829563 145.38209438 C-293.49529625 145.36007077 -297.08200304 145.36157339 -300.66905022 145.3698597 C-302.3789703 145.37067604 -304.08891264 145.36387356 -305.798769 145.34908867 C-316.16656994 145.27315017 -323.01717333 145.54846682 -331.0234375 152.84375 C-331.69246094 153.66359375 -331.69246094 153.66359375 -332.375 154.5 C-333.06722656 155.31984375 -333.06722656 155.31984375 -333.7734375 156.15625 C-336.61339944 160.42523737 -337.29407484 164.16465459 -337.3125 169.25 C-337.32925781 170.30703125 -337.34601563 171.3640625 -337.36328125 172.453125 C-337.02681267 177.00916601 -337.02681267 177.00916601 -334 185 C-349.51 185 -365.02 185 -381 185 C-381 129.89 -381 74.78 -381 18 C-339.09 18 -297.18 18 -254 18 C-253.67 37.8 -253.34 57.6 -253 78 C-249.77335175 99.95985778 -249.77335175 99.95985778 -236.78125 116.75 C-217.30761235 129.39521925 -191.32941599 128.10838499 -169 128.5625 C-168.02713043 128.58234955 -167.05426086 128.6021991 -166.0519104 128.62265015 C-161.1500972 128.72094055 -156.24821686 128.81335696 -151.34619141 128.90039062 C-148.10591703 128.95853012 -144.86620359 129.02470755 -141.62646484 129.10742188 C-127.81660556 129.44939691 -114.32576531 128.99008629 -100.625 127.25 C-99.38322998 127.09313721 -98.14145996 126.93627441 -96.86206055 126.7746582 C-73.95164249 123.56679965 -50.86909395 116.09630351 -33 101 C-32.34773438 100.50371094 -31.69546875 100.00742188 -31.0234375 99.49609375 C-13.40435444 85.49208152 -4.5967149 60.50497337 -1.72167969 38.90942383 C-0.86037742 30.91579446 -0.66343561 22.90539704 -0.4375 14.875 C-0.39419844 13.42707378 -0.35058094 11.97915698 -0.30664062 10.53125 C-0.20078894 7.02093422 -0.09919761 3.51051087 0 0 Z " fill="#CC0000" transform="translate(381,149)"/>
<path d="M0 0 C14.19344064 14.80840774 21.17181861 33.70177009 24.44140625 53.6015625 C24.77140625 55.5815625 25.10140625 57.5615625 25.44140625 59.6015625 C25.44140625 66.2015625 25.44140625 72.8015625 25.44140625 79.6015625 C-3.59859375 79.6015625 -32.63859375 79.6015625 -62.55859375 79.6015625 C-62.88859375 72.6715625 -63.21859375 65.7415625 -63.55859375 58.6015625 C-66.48899856 39.97024308 -66.48899856 39.97024308 -77.41015625 25.1328125 C-87.72861372 18.28040059 -96.63474443 19.6015625 -109.55859375 19.6015625 C-108.89859375 39.4015625 -108.23859375 59.2015625 -107.55859375 79.6015625 C-134.61859375 79.6015625 -161.67859375 79.6015625 -189.55859375 79.6015625 C-189.55859375 54.1915625 -189.55859375 28.7815625 -189.55859375 2.6015625 C-193.51859375 2.6015625 -197.47859375 2.6015625 -201.55859375 2.6015625 C-201.65923159 -7.46222143 -201.60256991 -17.37495183 -200.55859375 -27.3984375 C-189.69688966 -28.11440585 -178.83646083 -28.6948532 -167.9609375 -29.15234375 C-166.82287029 -29.20083277 -166.82287029 -29.20083277 -165.66181183 -29.25030136 C-37.04389347 -34.7251154 -37.04389347 -34.7251154 0 0 Z " fill="#010101" transform="translate(336.55859375,87.3984375)"/>
<path d="M0 0 C19.93476977 18.63036093 32.91740117 46.05078351 34.4375 73.3125 C34.60517337 78.73675859 34.62332769 84.16167816 34.62280273 89.58813477 C34.62498619 92.10905939 34.64318889 94.62954318 34.66210938 97.15039062 C34.69422196 106.40769587 34.17213018 115.18749175 32.4375 124.3125 C32.24929688 125.59382812 32.06109375 126.87515625 31.8671875 128.1953125 C27.83751234 151.74904761 15.24288827 173.22209784 -4.3046875 187.16015625 C-25.03680873 200.85727711 -48.10118142 206.47395638 -72.5625 209.3125 C-73.40151855 209.415625 -74.24053711 209.51875 -75.10498047 209.625 C-81.72216836 210.37656223 -88.28232065 210.46505965 -94.9375 210.4375 C-96.1548584 210.43411621 -97.3722168 210.43073242 -98.62646484 210.42724609 C-109.52067068 210.36981679 -120.41377492 210.20666653 -131.30596924 209.99310303 C-133.19650688 209.95662255 -135.08709315 209.92256418 -136.97772217 209.89117432 C-191.31877009 208.95983495 -191.31877009 208.95983495 -207.04296875 194.0390625 C-218.36625328 181.17301684 -219.73142718 163.07951978 -219.67602539 146.6640625 C-219.67624443 144.95055855 -219.67624443 144.95055855 -219.6764679 143.20243835 C-219.67577431 139.44743921 -219.6680079 135.69249042 -219.66015625 131.9375 C-219.6582901 129.32576525 -219.65686713 126.71403015 -219.65586853 124.10229492 C-219.65276961 117.94371604 -219.64457575 111.78515507 -219.63451904 105.62658405 C-219.62331305 98.61081505 -219.61783618 91.59504515 -219.61282361 84.57926941 C-219.60239183 70.1570035 -219.58461725 55.7347526 -219.5625 41.3125 C-223.5225 41.3125 -227.4825 41.3125 -231.5625 41.3125 C-231.75241266 7.80021915 -231.75241266 7.80021915 -231.125 -8.3125 C-231.08576416 -9.33972168 -231.04652832 -10.36694336 -231.00610352 -11.42529297 C-230.75433679 -17.21737744 -230.2336171 -22.93020603 -229.5625 -28.6875 C-228.31041748 -28.71255615 -227.05833496 -28.7376123 -225.76831055 -28.76342773 C-186.55752291 -29.51018239 -186.55752291 -29.51018239 -147.37890625 -31.1953125 C-94.56626264 -34.1420804 -42.57439926 -36.85811628 0 0 Z M-158.5 -11.25 C-159.3317701 -11.21629429 -160.16354019 -11.18258858 -161.02051544 -11.14786148 C-166.66887046 -10.91806616 -172.31692535 -10.68167563 -177.96484375 -10.44140625 C-178.69217524 -10.41082375 -179.41950672 -10.38024124 -180.16887856 -10.34873199 C-190.30914157 -9.91985784 -200.43515815 -9.35506157 -210.5625 -8.6875 C-211.60647616 1.33598567 -211.66313784 11.24871607 -211.5625 21.3125 C-207.6025 21.3125 -203.6425 21.3125 -199.5625 21.3125 C-199.57138245 22.99775787 -199.58026489 24.68301575 -199.5894165 26.41934204 C-199.67066899 42.33782196 -199.7307863 58.25623707 -199.76974869 74.17487526 C-199.79031272 82.35787958 -199.81831438 90.54072837 -199.86425781 98.72363281 C-199.90431544 105.86167176 -199.92997749 112.99959798 -199.93885398 120.13774621 C-199.94403697 123.91211884 -199.95608762 127.68616917 -199.98542023 131.46043777 C-200.0128899 135.0244082 -200.02088262 138.58792846 -200.01493073 142.15199471 C-200.01652888 144.0601951 -200.03788459 145.96834826 -200.06018066 147.87641907 C-200.01369969 157.78337903 -198.81706341 169.97515081 -192.12109375 177.86328125 C-175.15755374 193.6363974 -145.64145194 190.12042686 -124.11450195 190.29034424 C-121.60161091 190.31216045 -119.08894555 190.34200935 -116.57617188 190.37451172 C-83.17579488 190.79307167 -45.79396245 190.87236939 -17.5625 170.3125 C-16.71171875 169.71824219 -15.8609375 169.12398437 -14.984375 168.51171875 C1.8901587 156.01110559 10.77304082 135.44104947 14.06640625 115.15625 C17.9604355 85.31568903 15.91975016 52.36718871 -3 27.5 C-4.17702903 26.0953258 -5.36445647 24.69929437 -6.5625 23.3125 C-7.39974609 22.24322266 -7.39974609 22.24322266 -8.25390625 21.15234375 C-22.43652135 3.78400085 -45.86723175 -6.7960303 -67.5625 -10.6875 C-68.46266846 -10.85443359 -69.36283691 -11.02136719 -70.2902832 -11.19335938 C-78.94920604 -12.67377583 -87.42902898 -13.03890972 -96.1875 -13 C-96.96288116 -12.99950653 -97.73826233 -12.99901306 -98.53713989 -12.99850464 C-118.53518829 -12.96123859 -138.52164186 -12.06020627 -158.5 -11.25 Z " fill="#FDFCFC" transform="translate(346.5625,68.6875)"/>
<path d="M0 0 C0.74212234 0.08270016 1.48424469 0.16540031 2.24885559 0.25060654 C11.21185902 1.33113683 19.85742727 3.21499023 28.4375 6.0625 C29.21651459 8.23881054 29.21651459 8.23881054 29.4375 11.0625 C27.6747818 13.56071186 27.6747818 13.56071186 24.9732666 16.24153137 C24.4808666 16.73835236 23.9884666 17.23517334 23.48114538 17.74704951 C21.8223209 19.41343386 20.142931 21.05742041 18.46289062 22.70239258 C17.27114609 23.89080838 16.08072675 25.08055438 14.89154053 26.27153015 C11.6522347 29.50828045 8.3948081 32.72623251 5.13406563 35.94136643 C1.72304074 39.31117979 -1.67063041 42.69837434 -5.06604004 46.08390808 C-11.50943056 52.50345414 -17.96752706 58.90798606 -24.43136454 65.30693692 C-33.8966118 74.67845942 -43.33995905 84.07200727 -52.78305817 93.46583843 C-54.17978739 94.85521822 -55.57652348 96.2445911 -56.9732666 97.63395691 C-57.65568121 98.31282178 -58.33809583 98.99168665 -59.04118967 99.69112319 C-63.08524093 103.71314209 -67.13355213 107.73081058 -71.18579006 111.74458086 C-73.71574594 114.25102673 -76.24374937 116.7594363 -78.77147675 119.26812935 C-79.93830606 120.42515692 -81.10604822 121.5812648 -82.27480316 122.7363472 C-83.87975028 124.32265885 -85.48193896 125.91167836 -87.08239746 127.5025177 C-87.57290809 127.98890988 -88.06341871 128.47530206 -88.5687933 128.9764334 C-91.93974798 132.3512586 -95.04021249 135.87118489 -97.96518707 139.6377058 C-100.08307881 141.52685339 -101.76825093 141.80691193 -104.5625 142.0625 C-106.46127319 140.92562866 -106.46127319 140.92562866 -108.26708984 139.13427734 C-108.95064545 138.4696347 -109.63420105 137.80499207 -110.33847046 137.12020874 C-111.42002914 136.02043198 -111.42002914 136.02043198 -112.5234375 134.8984375 C-113.27339996 134.15421539 -114.02336243 133.40999329 -114.79605103 132.64321899 C-116.37842346 131.06493149 -117.95323594 129.47903368 -119.52099609 127.88623047 C-121.92836852 125.44675325 -124.36601914 123.04088965 -126.80859375 120.63671875 C-128.34046921 119.10087849 -129.87048241 117.56317806 -131.3984375 116.0234375 C-132.13162201 115.30239838 -132.86480652 114.58135925 -133.62020874 113.83847046 C-134.28485138 113.15491486 -134.94949402 112.47135925 -135.63427734 111.76708984 C-136.22542328 111.17117035 -136.81656921 110.57525085 -137.42562866 109.96127319 C-138.5625 108.0625 -138.5625 108.0625 -138.34220695 105.71156216 C-137.44926889 102.67779617 -136.30556134 101.14652425 -134.22406006 98.7787323 C-133.50637168 97.95565551 -132.7886833 97.13257872 -132.04924679 96.2845602 C-131.25407933 95.39554547 -130.45891188 94.50653074 -129.63964844 93.59057617 C-128.80295152 92.64402444 -127.9662546 91.69747271 -127.10420322 90.72223759 C-116.10217566 78.32328722 -104.76484682 66.23230504 -93.3125 54.25 C-92.76621146 53.6767557 -92.21992291 53.1035114 -91.65708017 52.51289606 C-37.57872568 -4.19826853 -37.57872568 -4.19826853 0 0 Z " fill="#FFD21F" transform="translate(405.5625,309.9375)"/>
<path d="M0 0 C59.00854794 -8.55297774 59.00854794 -8.55297774 80.40470505 6.43102837 C94.42276209 16.90911458 106.21496264 30.22931186 117.6738255 43.36473858 C122.94993081 49.39414376 128.45745377 55.19308446 133.97980189 60.99611604 C142.53738662 70.00836337 150.98513611 79.12118749 159.21240234 88.4362793 C160.0239679 89.33467529 160.83553345 90.23307129 161.67169189 91.15869141 C162.39518829 91.99015182 163.11868469 92.82161224 163.86410522 93.67826843 C164.81508874 94.75538353 164.81508874 94.75538353 165.78528404 95.85425854 C167 98 167 98 166.78012753 100.65380764 C165.89329026 103.3209239 164.88977566 104.62233123 162.9206543 106.61279297 C161.94910652 107.60809525 161.94910652 107.60809525 160.95793152 108.62350464 C160.2538063 109.32266998 159.54968109 110.02183533 158.82421875 110.7421875 C158.10265091 111.46995392 157.38108307 112.19772034 156.63764954 112.94754028 C155.11183529 114.48045028 153.58087027 116.00824815 152.04516602 117.53125 C149.69081397 119.87170559 147.36147533 122.23519442 145.03320312 124.6015625 C143.54832674 126.08738973 142.06204537 127.57181448 140.57421875 129.0546875 C139.87616623 129.76599823 139.17811371 130.47730896 138.45890808 131.21017456 C137.80175308 131.85479645 137.14459808 132.49941833 136.4675293 133.16357422 C135.89318649 133.73695526 135.31884369 134.3103363 134.72709656 134.90109253 C133 136 133 136 131.23099709 135.88255119 C128.03227396 134.61718114 125.95603191 132.3795056 123.57695007 129.97808838 C123.041965 129.44989998 122.50697993 128.92171157 121.95578319 128.37751746 C120.16211958 126.60286928 118.37937621 124.81764281 116.59643555 123.03222656 C115.31405039 121.75881599 114.03105079 120.48602394 112.7474823 119.21380615 C109.26119068 115.75404412 105.78471676 112.2845752 102.31071067 108.81248188 C99.41269464 105.91731194 96.51059807 103.02624846 93.60869151 100.13497901 C86.76561282 93.31633585 79.93112314 86.48916298 73.10131836 79.65722656 C66.04739789 72.60150201 58.97690236 65.56269599 51.89845055 58.53158975 C45.82744571 52.49975484 39.76800549 46.45646785 33.71751434 40.40405631 C30.10108003 36.78685559 26.48009795 33.174508 22.84747887 29.57355499 C19.43362483 26.1886512 16.03434794 22.7897696 12.64590645 19.37943268 C11.39777622 18.1281536 10.14446979 16.88201399 8.88576508 15.64137268 C7.17237472 13.95099519 5.47838005 12.24331765 3.78813171 10.52984619 C3.28212407 10.03926924 2.77611643 9.54869229 2.25477523 9.04324937 C0.8960371 7.64270401 0.8960371 7.64270401 -1 5 C-0.79925823 2.15438461 -0.79925823 2.15438461 0 0 Z " fill="#FFD21F" transform="translate(66,316)"/>
<path d="M0 0 C36.96 0 73.92 0 112 0 C110.875 5.625 110.875 5.625 107.76538086 8.6887207 C107.08475082 9.36904861 106.40412079 10.04937653 105.7028656 10.75032043 C104.96431839 11.4682225 104.22577118 12.18612457 103.46484375 12.92578125 C102.71159317 13.67337204 101.95834259 14.42096283 101.18226624 15.19120789 C98.77657387 17.57452737 96.35734196 19.94355659 93.9375 22.3125 C92.30312464 23.92681175 90.66964972 25.54203567 89.03710938 27.15820312 C85.0366934 31.1179438 81.0182754 35.05806123 77 39 C91.85 39.33 106.7 39.66 122 40 C118.06439493 44.59153924 114.17446399 48.96803152 109.90283203 53.21069336 C109.32649521 53.78717621 108.75015839 54.36365906 108.15635681 54.95761108 C106.27587265 56.83740595 104.39188591 58.71364693 102.5078125 60.58984375 C101.19337426 61.90241431 99.87915856 63.21520776 98.56515503 64.5282135 C95.12493488 67.96463602 91.68172107 71.39804337 88.237854 74.83081055 C84.71663589 78.34175501 81.19828651 81.8555717 77.6796875 85.36914062 C70.78924732 92.24889212 63.89563795 99.12545855 57 106 C52.74974579 104.34930283 49.90585269 101.17950607 46.76269531 98.00561523 C46.14763626 97.39245453 45.53257721 96.77929382 44.89888 96.14755249 C42.87037831 94.12275103 40.84915843 92.09084749 38.828125 90.05859375 C37.42173106 88.6510078 36.01496737 87.2437912 34.60784912 85.83692932 C31.6627029 82.8902197 28.72094592 79.94018172 25.78173828 76.98754883 C22.00475282 73.19353477 18.22117868 69.40617606 14.43529129 65.62104702 C11.53206372 62.71754828 8.63144391 59.81145649 5.73171234 56.90446663 C4.33678338 55.50634532 2.94123893 54.10883783 1.54508209 52.71194267 C-0.39923952 50.76546569 -2.34023981 48.81573979 -4.28027344 46.86499023 C-4.86308578 46.28263107 -5.44589813 45.70027191 -6.04637146 45.1002655 C-10 41.11447635 -10 41.11447635 -10 40 C12.275 39.505 12.275 39.505 35 39 C32.4734375 36.51984375 29.946875 34.0396875 27.34375 31.484375 C24.90889567 29.08069798 22.47748635 26.67358706 20.04638672 24.26611328 C18.35237217 22.5922385 16.65478833 20.92196808 14.95361328 19.25537109 C12.51172074 16.86188925 10.0828756 14.45582153 7.65625 12.046875 C6.89066772 11.30193787 6.12508545 10.55700073 5.33630371 9.78948975 C4.63557739 9.08906555 3.93485107 8.38864136 3.21289062 7.66699219 C2.28023376 6.747659 2.28023376 6.747659 1.32873535 5.80975342 C0 4 0 4 0 0 Z " fill="#FED221" transform="translate(194,294)"/>
<path d="M0 0 C9.89083384 3.45029088 14.63765198 9.22266478 19.60546875 18.24609375 C24.55198042 29.13953518 24.97151047 41.48187477 24.91796875 53.24609375 C24.91168457 55.14161987 24.91168457 55.14161987 24.90527344 57.07543945 C24.69444942 74.74316514 23.91349186 92.77893248 11.08984375 106.10546875 C4.81438172 111.51262786 -1.63701766 112.71524459 -9.75390625 112.484375 C-12.66757915 112.22145481 -15.51183516 111.73936943 -18.39453125 111.24609375 C-22.72516222 35.56765466 -22.72516222 35.56765466 -22.39453125 0.24609375 C-16.53474131 -2.68380122 -6.26682217 -1.39182587 0 0 Z " fill="#FDFCFC" transform="translate(249.39453125,106.75390625)"/>
<path d="M0 0 C36.96 0 73.92 0 112 0 C110.8984727 5.50763652 109.92587425 6.58530348 106.10058594 10.44873047 C105.59153214 10.96800613 105.08247833 11.4872818 104.55799866 12.02229309 C102.87699614 13.73103508 101.1816037 15.4245719 99.484375 17.1171875 C98.30906666 18.3002705 97.13420714 19.48379952 95.95977783 20.66775513 C93.49835085 23.14409356 91.02933041 25.61255246 88.55517578 28.07617188 C85.38259381 31.23714274 82.23337026 34.42030639 79.08987045 37.61016655 C76.67079377 40.05867081 74.23804338 42.49321869 71.80109406 44.92392349 C70.63378396 46.09226165 69.47120518 47.26534662 68.31346893 48.44317245 C66.69523132 50.08602656 65.05913564 51.70872654 63.41699219 53.32763672 C62.48957214 54.25631561 61.5621521 55.18499451 60.60662842 56.14181519 C58 58 58 58 55.28871155 57.88893127 C52.55592665 56.82752274 51.06925497 55.55644247 49.01171875 53.47265625 C48.30595703 52.76302734 47.60019531 52.05339844 46.87304688 51.32226562 C46.15181641 50.57654297 45.43058594 49.83082031 44.6875 49.0625 C43.94693359 48.32064453 43.20636719 47.57878906 42.44335938 46.81445312 C37 41.28078917 37 41.28078917 37 39 C36.41184509 38.73585297 35.82369019 38.47170593 35.2177124 38.19955444 C32.91379917 36.95337421 31.37628902 35.64226057 29.51660156 33.80712891 C28.85621887 33.15950592 28.19583618 32.51188293 27.51544189 31.84463501 C26.81425232 31.14567108 26.11306274 30.44670715 25.390625 29.7265625 C24.66381531 29.00640961 23.93700562 28.28625671 23.18817139 27.54428101 C21.65585347 26.02207693 20.12622967 24.4971567 18.59912109 22.96972656 C16.25519272 20.630183 13.89573915 18.30709811 11.53515625 15.984375 C10.04850096 14.50358561 8.56279092 13.02184647 7.078125 11.5390625 C6.3688385 10.84414703 5.659552 10.14923157 4.92877197 9.43325806 C4.28099792 8.77933075 3.63322388 8.12540344 2.96582031 7.45166016 C2.39164368 6.88033356 1.81746704 6.30900696 1.22589111 5.72036743 C0 4 0 4 0 0 Z " fill="#FEFCFC" transform="translate(194,294)"/>
<path d="M0 0 C1.53121806 0.02056371 3.06250942 0.03619942 4.59382629 0.04716492 C8.58902323 0.08880347 12.57969102 0.19650128 16.57312012 0.31890869 C20.6620558 0.43224654 24.75173709 0.48184435 28.84179688 0.53710938 C36.84060089 0.65443649 44.83574996 0.8416943 52.83203125 1.07421875 C53.66618347 3.15339661 53.66618347 3.15339661 53.83203125 6.07421875 C50.24335606 11.60675217 45.19369145 17.49585451 38.82659531 19.79993057 C33.70392794 20.85007782 28.5686045 20.57297977 23.375 20.34375 C21.73455672 20.31943979 20.09401769 20.30096484 18.45344543 20.28800964 C14.17814888 20.23885625 9.90878693 20.11164189 5.63580322 19.96685791 C1.25866989 19.83278172 -3.11944298 19.77427084 -7.49804688 19.70898438 C-16.05738246 19.57042642 -24.61193341 19.34920488 -33.16796875 19.07421875 C-31.85941023 17.48272866 -30.53689634 15.90183949 -29.17121887 14.35908508 C-27.69746456 12.6781509 -26.27712059 10.95001445 -24.88871765 9.19792175 C-17.52791857 0.67313742 -10.90518359 -0.43500779 0 0 Z " fill="#CC0000" transform="translate(381.16796875,314.92578125)"/>
<path d="M0 0 C8.70156417 -0.3973542 17.39992363 -0.69759916 26.10864162 -0.88080692 C30.15491187 -0.96883874 34.19489825 -1.08770759 38.23754883 -1.2824707 C66.47753962 -2.60866306 66.47753962 -2.60866306 75.01611328 3.82470703 C79.27629915 7.7302275 83.01640064 12.03668761 86 17 C86 17.33 86 17.66 86 18 C76.57682478 18.30285551 67.1553536 18.53299845 57.72835255 18.67355824 C53.34944655 18.74106685 48.97389743 18.83240536 44.59692383 18.98071289 C40.36257884 19.12326936 36.13143399 19.19994909 31.89487267 19.23340416 C30.2890657 19.25720109 28.68341031 19.30367651 27.07898903 19.37449074 C18.63694698 19.73185397 12.60084037 19.36003328 6.11879253 13.50421429 C3.37510246 10.76253203 1.12420176 8.27480662 -1 5 C-0.83415222 2.07917786 -0.83415222 2.07917786 0 0 Z " fill="#CC0000" transform="translate(66,316)"/>
</svg>
